# xmcd
#
# Track frame offsets:
# 150
# 10284
# 23101
# 33982
# 44770
# 57619
# 71249
# 82762
# 93905
# 105588
# 118446
# 130307
# 142404
# 152320
# 164449
# 177518
# 188582
# 204078
# 214161
# 227552
# 241167
# 253837
# 263905
# 274934
# 287863
# 299932
#
# Disc length: 4160 seconds
#
#
# Revision: 0
# Processed by: cddbd v1.5.1PL2 Copyright (c) Steve Scherf et al.
# Submitted via: FreeRIP 2.945 
#
DISCID=91103e1a
DTITLE=Country Memories - Various - Country Memories
DYEAR=1900
DGENRE=Country
TTITLE0=Please Help Me, I'm Falling - Hank Locklin
TTITLE1=Fraulein - Bobby Helms
TTITLE2=He'll Have To Go - Jim Reeves
TTITLE3=Am I That Easy To Forget - Carl Belew
TTITLE4=It Keeps Right ON A Hurtin' - Johnny Tillotson
TTITLE5=Heartaches By The Number - Ray Price
TTITLE6=Gonna Get Along Without You Now - Skeeter Davis
TTITLE7=Singing The Blues - Guy Mitchell
TTITLE8=Everybody's Somebody's Fool - Connie Francis
TTITLE9=These Boots ARe Made Fro Walking - Lee Hazlewood
TTITLE10=Walin' In The Sunshine - Roger Miller
TTITLE11=Queen Of The House - Jody Miller
TTITLE12=From A Jack To A King - Ned Miller
TTITLE13=Right Or Wrong - Wanda Jackson
TTITLE14=Allegheny Moon - Patti Page
TTITLE15=Send Me The Pillow You Dream On - Hank Locklin
TTITLE16=The Blizzard - Jim Reeves
TTITLE17=I Can't Stop Loving You - Kitty Wells
TTITLE18=Detroit City - Bobby Bare
TTITLE19=Almost Persuaded - David Houston
TTITLE20=I'm So Lonesome I Could Cry - Hank Williams
TTITLE21=Abilene - George Hamilton IV
TTITLE22=Tender Years - George Jones
TTITLE23=In The Misty Moonlight - Jerry Wallace
TTITLE24=There Goes My Everthing - Jack Greene
TTITLE25=Release Me - Ray Price
EXTD=
EXTT0=
EXTT1=
EXTT2=
EXTT3=
EXTT4=
EXTT5=
EXTT6=
EXTT7=
EXTT8=
EXTT9=
EXTT10=
EXTT11=
EXTT12=
EXTT13=
EXTT14=
EXTT15=
EXTT16=
EXTT17=
EXTT18=
EXTT19=
EXTT20=
EXTT21=
EXTT22=
EXTT23=
EXTT24=
EXTT25=
PLAYORDER=
